<svg width="32" height="32" viewBox="0 0 32 32" fill="none" xmlns="http://www.w3.org/2000/svg">
<path d="M24.0162 10.0042C24.0162 10.4056 23.9897 10.8037 23.9366 11.1985C23.9499 11.1089 23.9598 11.0226 23.9731 10.9331C23.8636 11.7326 23.6513 12.5122 23.3395 13.252C23.3726 13.1724 23.4058 13.0927 23.439 13.0131C23.2632 13.4212 23.0608 13.8193 22.8286 14.1975C22.7125 14.3899 22.5864 14.5757 22.4537 14.7581C22.4238 14.7979 22.394 14.8411 22.3641 14.8809C22.3475 14.9041 22.3276 14.9273 22.311 14.9506C22.2546 15.0302 22.4039 14.8179 22.4006 14.8344C22.3807 14.9174 22.2381 15.0368 22.1817 15.1032C21.893 15.4449 21.5779 15.7667 21.2395 16.0619C21.1632 16.1283 21.0869 16.1946 21.0073 16.2577C20.9641 16.2941 20.9177 16.3306 20.8712 16.3671C20.8414 16.3904 20.7717 16.4434 20.9044 16.3439C21.0471 16.2344 20.9343 16.3207 20.9011 16.3439C20.7286 16.4733 20.5494 16.5994 20.367 16.7155C19.939 16.9908 19.4845 17.2297 19.0168 17.432C19.0964 17.3989 19.176 17.3657 19.2556 17.3325C18.5125 17.6444 17.7329 17.8567 16.9367 17.9662C17.0263 17.9529 17.1125 17.9429 17.2021 17.9297C16.4092 18.0325 15.603 18.0325 14.8102 17.9297C14.8997 17.9429 14.986 17.9529 15.0756 17.9662C14.276 17.8567 13.4964 17.6444 12.7566 17.3325C12.8362 17.3657 12.9159 17.3989 12.9955 17.432C12.5874 17.2562 12.1893 17.0539 11.8111 16.8216C11.6187 16.7055 11.4329 16.5794 11.2505 16.4467C11.2107 16.4169 11.1675 16.387 11.1277 16.3572C11.1045 16.3406 11.0813 16.3207 11.0581 16.3041C10.9784 16.2477 11.1908 16.397 11.1742 16.3937C11.0912 16.3738 10.9718 16.2311 10.9055 16.1747C10.5638 15.8861 10.242 15.5709 9.9467 15.2325C9.88035 15.1562 9.814 15.0799 9.75096 15.0003C9.71447 14.9572 9.67798 14.9107 9.64149 14.8643C9.61826 14.8344 9.56518 14.7648 9.66471 14.8975C9.77419 15.0401 9.68793 14.9273 9.66471 14.8942C9.53533 14.7216 9.40926 14.5425 9.29315 14.36C9.01779 13.9321 8.77893 13.4776 8.57657 13.0098C8.60974 13.0894 8.64292 13.1691 8.67609 13.2487C8.36425 12.5056 8.15193 11.7259 8.04245 10.9297C8.05572 11.0193 8.06567 11.1056 8.07894 11.1951C7.9761 10.4023 7.9761 9.5961 8.07894 8.80321C8.06567 8.89279 8.05572 8.97904 8.04245 9.06861C8.15193 8.2691 8.36425 7.48948 8.67609 6.74968C8.64292 6.8293 8.60974 6.90892 8.57657 6.98854C8.75239 6.58048 8.95476 6.18238 9.18699 5.80419C9.3031 5.61177 9.42916 5.42599 9.56187 5.24353C9.59172 5.20372 9.62158 5.16059 9.65144 5.12078C9.66803 5.09756 9.68793 5.07434 9.70452 5.05111C9.76092 4.97149 9.61163 5.18381 9.61495 5.16723C9.63485 5.08429 9.7775 4.96486 9.8339 4.89851C10.1225 4.55681 10.4377 4.23501 10.7761 3.93975C10.8524 3.8734 10.9287 3.80705 11.0083 3.74402C11.0514 3.70752 11.0979 3.67103 11.1443 3.63454C11.1742 3.61132 11.2438 3.55824 11.1111 3.65776C10.9685 3.76724 11.0813 3.68098 11.1145 3.65776C11.287 3.52838 11.4661 3.40231 11.6486 3.2862C12.0765 3.01085 12.531 2.77199 12.9988 2.56962C12.9192 2.60279 12.8396 2.63597 12.7599 2.66914C13.5031 2.3573 14.2827 2.14498 15.0789 2.0355C14.9893 2.04877 14.9031 2.05872 14.8135 2.07199C15.6064 1.96915 16.4125 1.96915 17.2054 2.07199C17.1158 2.05872 17.0296 2.04877 16.94 2.0355C17.7395 2.14498 18.5191 2.3573 19.2589 2.66914C19.1793 2.63597 19.0997 2.60279 19.0201 2.56962C19.4281 2.74545 19.8262 2.94782 20.2044 3.18004C20.3968 3.29615 20.5826 3.42222 20.7651 3.55492C20.8049 3.58478 20.848 3.61463 20.8878 3.64449C20.9111 3.66108 20.9343 3.68098 20.9575 3.69757C21.0371 3.75397 20.8248 3.60468 20.8414 3.608C20.9243 3.6279 21.0438 3.77056 21.1101 3.82695C21.4518 4.11558 21.7736 4.43074 22.0689 4.76913C22.1352 4.84543 22.2016 4.92173 22.2646 5.00135C22.3011 5.04448 22.3376 5.09092 22.3741 5.13737C22.3973 5.16723 22.4504 5.2369 22.3509 5.10419C22.2414 4.96154 22.3276 5.07434 22.3509 5.10751C22.4802 5.28002 22.6063 5.45917 22.7224 5.64163C22.9978 6.06959 23.2366 6.52409 23.439 6.99186C23.4058 6.91224 23.3726 6.83262 23.3395 6.753C23.6513 7.49612 23.8636 8.27573 23.9731 9.07193C23.9598 8.98236 23.9499 8.8961 23.9366 8.80653C23.9897 9.20463 24.0162 9.60273 24.0162 10.0042C24.0162 10.525 24.4741 11.0226 25.0115 10.9994C25.5489 10.9762 26.0067 10.5615 26.0067 10.0042C26.0001 7.97384 25.3831 5.93025 24.1987 4.27482C22.9911 2.57957 21.3291 1.30565 19.375 0.585751C17.4409 -0.124195 15.2448 -0.183911 13.2675 0.380066C11.36 0.924137 9.59504 2.05541 8.33439 3.59141C6.99412 5.22362 6.1946 7.18095 6.02872 9.28757C5.86948 11.3245 6.37706 13.4278 7.43534 15.1728C8.46045 16.8614 9.99978 18.2681 11.8012 19.0808C12.8097 19.5353 13.8414 19.8173 14.9395 19.9467C15.9713 20.0695 17.0229 20.0031 18.0414 19.7974C19.9954 19.406 21.8333 18.3742 23.2101 16.9377C24.5902 15.4946 25.5589 13.6236 25.8641 11.6463C25.947 11.1022 26.0034 10.5582 26.0034 10.0042C26.0034 9.4833 25.5456 8.98568 25.0082 9.0089C24.4707 9.03212 24.0196 9.44681 24.0162 10.0042Z" fill="#F44336"/>
<path d="M24.0162 10.0042C24.0162 10.4056 23.9897 10.8037 23.9366 11.1985C23.9499 11.1089 23.9598 11.0226 23.9731 10.9331C23.8636 11.7326 23.6513 12.5122 23.3395 13.252C23.3726 13.1724 23.4058 13.0927 23.439 13.0131C23.2632 13.4212 23.0608 13.8193 22.8286 14.1975C22.7125 14.3899 22.5864 14.5757 22.4537 14.7581C22.4238 14.7979 22.394 14.8411 22.3641 14.8809C22.3475 14.9041 22.3276 14.9273 22.311 14.9506C22.2546 15.0302 22.4039 14.8179 22.4006 14.8344C22.3807 14.9174 22.2381 15.0368 22.1817 15.1032C21.893 15.4449 21.5779 15.7667 21.2395 16.0619C21.1632 16.1283 21.0869 16.1946 21.0073 16.2577C20.9641 16.2941 20.9177 16.3306 20.8712 16.3671C20.8414 16.3904 20.7717 16.4434 20.9044 16.3439C21.0471 16.2344 20.9343 16.3207 20.9011 16.3439C20.7286 16.4733 20.5494 16.5994 20.367 16.7155C19.939 16.9908 19.4845 17.2297 19.0168 17.432C19.0964 17.3989 19.176 17.3657 19.2556 17.3325C18.5125 17.6444 17.7329 17.8567 16.9367 17.9662C17.0263 17.9529 17.1125 17.9429 17.2021 17.9297C16.4092 18.0325 15.603 18.0325 14.8102 17.9297C14.8997 17.9429 14.986 17.9529 15.0756 17.9662C14.276 17.8567 13.4964 17.6444 12.7566 17.3325C12.8362 17.3657 12.9159 17.3989 12.9955 17.432C12.5874 17.2562 12.1893 17.0539 11.8111 16.8216C11.6187 16.7055 11.4329 16.5794 11.2505 16.4467C11.2107 16.4169 11.1675 16.387 11.1277 16.3572C11.1045 16.3406 11.0813 16.3207 11.0581 16.3041C10.9784 16.2477 11.1908 16.397 11.1742 16.3937C11.0912 16.3738 10.9718 16.2311 10.9055 16.1747C10.5638 15.8861 10.242 15.5709 9.9467 15.2325C9.88035 15.1562 9.814 15.0799 9.75096 15.0003C9.71447 14.9572 9.67798 14.9107 9.64149 14.8643C9.61826 14.8344 9.56518 14.7648 9.66471 14.8975C9.77419 15.0401 9.68793 14.9273 9.66471 14.8942C9.53533 14.7216 9.40926 14.5425 9.29315 14.36C9.01779 13.9321 8.77893 13.4776 8.57657 13.0098C8.60974 13.0894 8.64292 13.1691 8.67609 13.2487C8.36425 12.5056 8.15193 11.7259 8.04245 10.9297C8.05572 11.0193 8.06567 11.1056 8.07894 11.1951C7.9761 10.4023 7.9761 9.5961 8.07894 8.80321C8.06567 8.89279 8.05572 8.97904 8.04245 9.06861C8.15193 8.2691 8.36425 7.48948 8.67609 6.74968C8.64292 6.8293 8.60974 6.90892 8.57657 6.98854C8.75239 6.58048 8.95476 6.18238 9.18699 5.80419C9.3031 5.61177 9.42916 5.42599 9.56187 5.24353C9.59172 5.20372 9.62158 5.16059 9.65144 5.12078C9.66803 5.09756 9.68793 5.07434 9.70452 5.05111C9.76092 4.97149 9.61163 5.18381 9.61495 5.16723C9.63485 5.08429 9.7775 4.96486 9.8339 4.89851C10.1225 4.55681 10.4377 4.23501 10.7761 3.93975C10.8524 3.8734 10.9287 3.80705 11.0083 3.74402C11.0514 3.70752 11.0979 3.67103 11.1443 3.63454C11.1742 3.61132 11.2438 3.55824 11.1111 3.65776C10.9685 3.76724 11.0813 3.68098 11.1145 3.65776C11.287 3.52838 11.4661 3.40231 11.6486 3.2862C12.0765 3.01085 12.531 2.77199 12.9988 2.56962C12.9192 2.60279 12.8396 2.63597 12.7599 2.66914C13.5031 2.3573 14.2827 2.14498 15.0789 2.0355C14.9893 2.04877 14.9031 2.05872 14.8135 2.07199C15.6064 1.96915 16.4125 1.96915 17.2054 2.07199C17.1158 2.05872 17.0296 2.04877 16.94 2.0355C17.7395 2.14498 18.5191 2.3573 19.2589 2.66914C19.1793 2.63597 19.0997 2.60279 19.0201 2.56962C19.4281 2.74545 19.8262 2.94782 20.2044 3.18004C20.3968 3.29615 20.5826 3.42222 20.7651 3.55492C20.8049 3.58478 20.848 3.61463 20.8878 3.64449C20.9111 3.66108 20.9343 3.68098 20.9575 3.69757C21.0371 3.75397 20.8248 3.60468 20.8414 3.608C20.9243 3.6279 21.0438 3.77056 21.1101 3.82695C21.4518 4.11558 21.7736 4.43074 22.0689 4.76913C22.1352 4.84543 22.2016 4.92173 22.2646 5.00135C22.3011 5.04448 22.3376 5.09092 22.3741 5.13737C22.3973 5.16723 22.4504 5.2369 22.3509 5.10419C22.2414 4.96154 22.3276 5.07434 22.3509 5.10751C22.4802 5.28002 22.6063 5.45917 22.7224 5.64163C22.9978 6.06959 23.2366 6.52409 23.439 6.99186C23.4058 6.91224 23.3726 6.83262 23.3395 6.753C23.6513 7.49612 23.8636 8.27573 23.9731 9.07193C23.9598 8.98236 23.9499 8.8961 23.9366 8.80653C23.9897 9.20463 24.0162 9.60273 24.0162 10.0042C24.0162 10.525 24.4741 11.0226 25.0115 10.9994C25.5489 10.9762 26.0067 10.5615 26.0067 10.0042C26.0001 7.97384 25.3831 5.93025 24.1987 4.27482C22.9911 2.57957 21.3291 1.30565 19.375 0.585751C17.4409 -0.124195 15.2448 -0.183911 13.2675 0.380066C11.36 0.924137 9.59504 2.05541 8.33439 3.59141C6.99412 5.22362 6.1946 7.18095 6.02872 9.28757C5.86948 11.3245 6.37706 13.4278 7.43534 15.1728C8.46045 16.8614 9.99978 18.2681 11.8012 19.0808C12.8097 19.5353 13.8414 19.8173 14.9395 19.9467C15.9713 20.0695 17.0229 20.0031 18.0414 19.7974C19.9954 19.406 21.8333 18.3742 23.2101 16.9377C24.5902 15.4946 25.5589 13.6236 25.8641 11.6463C25.947 11.1022 26.0034 10.5582 26.0034 10.0042C26.0034 9.4833 25.5456 8.98568 25.0082 9.0089C24.4707 9.03212 24.0196 9.44681 24.0162 10.0042Z" fill="black" fill-opacity="0.6"/>
<path d="M16.9998 31.0039C16.9998 30.6058 16.9998 30.2077 16.9998 29.8063C16.9998 28.8542 16.9998 27.9021 16.9998 26.9499C16.9998 25.7921 16.9998 24.6376 16.9998 23.4798C16.9998 22.4846 16.9998 21.4893 16.9998 20.4941C16.9998 20.0097 17.0098 19.522 16.9998 19.0344C16.9998 19.0277 16.9998 19.0211 16.9998 19.0145C16.9998 18.4936 16.542 17.996 16.0046 18.0192C15.4638 18.0424 15.0093 18.4571 15.0093 19.0145C15.0093 19.4126 15.0093 19.8107 15.0093 20.2121C15.0093 21.1642 15.0093 22.1163 15.0093 23.0685C15.0093 24.2263 15.0093 25.3808 15.0093 26.5386C15.0093 27.5338 15.0093 28.5291 15.0093 29.5243C15.0093 30.0087 14.9994 30.4964 15.0093 30.984C15.0093 30.9907 15.0093 30.9973 15.0093 31.0039C15.0093 31.5248 15.4671 32.0224 16.0046 31.9992C16.5453 31.9726 16.9998 31.5613 16.9998 31.0039Z" fill="#F44336"/>
<path d="M16.9998 31.0039C16.9998 30.6058 16.9998 30.2077 16.9998 29.8063C16.9998 28.8542 16.9998 27.9021 16.9998 26.9499C16.9998 25.7921 16.9998 24.6376 16.9998 23.4798C16.9998 22.4846 16.9998 21.4893 16.9998 20.4941C16.9998 20.0097 17.0098 19.522 16.9998 19.0344C16.9998 19.0277 16.9998 19.0211 16.9998 19.0145C16.9998 18.4936 16.542 17.996 16.0046 18.0192C15.4638 18.0424 15.0093 18.4571 15.0093 19.0145C15.0093 19.4126 15.0093 19.8107 15.0093 20.2121C15.0093 21.1642 15.0093 22.1163 15.0093 23.0685C15.0093 24.2263 15.0093 25.3808 15.0093 26.5386C15.0093 27.5338 15.0093 28.5291 15.0093 29.5243C15.0093 30.0087 14.9994 30.4964 15.0093 30.984C15.0093 30.9907 15.0093 30.9973 15.0093 31.0039C15.0093 31.5248 15.4671 32.0224 16.0046 31.9992C16.5453 31.9726 16.9998 31.5613 16.9998 31.0039Z" fill="black" fill-opacity="0.6"/>
<path d="M21.1866 25.1453C20.0188 25.1453 18.8511 25.1453 17.6833 25.1453C15.8222 25.1453 13.9611 25.1453 12.1033 25.1453C11.6753 25.1453 11.2507 25.1453 10.8227 25.1453C10.3018 25.1453 9.80422 25.6031 9.82744 26.1405C9.85066 26.6813 10.2654 27.1358 10.8227 27.1358C11.9905 27.1358 13.1582 27.1358 14.326 27.1358C16.1871 27.1358 18.0482 27.1358 19.906 27.1358C20.334 27.1358 20.7586 27.1358 21.1866 27.1358C21.7074 27.1358 22.2051 26.678 22.1818 26.1405C22.1586 25.5998 21.7439 25.1453 21.1866 25.1453Z" fill="#F44336"/>
<path d="M21.1866 25.1453C20.0188 25.1453 18.8511 25.1453 17.6833 25.1453C15.8222 25.1453 13.9611 25.1453 12.1033 25.1453C11.6753 25.1453 11.2507 25.1453 10.8227 25.1453C10.3018 25.1453 9.80422 25.6031 9.82744 26.1405C9.85066 26.6813 10.2654 27.1358 10.8227 27.1358C11.9905 27.1358 13.1582 27.1358 14.326 27.1358C16.1871 27.1358 18.0482 27.1358 19.906 27.1358C20.334 27.1358 20.7586 27.1358 21.1866 27.1358C21.7074 27.1358 22.2051 26.678 22.1818 26.1405C22.1586 25.5998 21.7439 25.1453 21.1866 25.1453Z" fill="black" fill-opacity="0.6"/>
</svg>
