<svg width="32" height="32" viewBox="0 0 32 32" fill="none" xmlns="http://www.w3.org/2000/svg">
<path d="M20.8355 25.9371C22.3292 24.433 23.3862 22.468 23.7328 20.3678C23.9026 19.3455 23.9477 18.3162 23.8125 17.2869C23.6635 16.1606 23.3654 15.1035 22.8872 14.0708C21.9896 12.13 20.4197 10.47 18.5552 9.4303C16.7461 8.41833 14.6113 7.94354 12.5423 8.14455C10.3347 8.35595 8.28648 9.21543 6.60219 10.6606C4.9872 12.0434 3.81235 13.9633 3.30637 16.0289C2.81425 18.0389 2.90782 20.2153 3.63907 22.1561C4.42924 24.2528 5.83975 26.0411 7.70772 27.2852C9.44747 28.4462 11.5719 29.0458 13.6617 28.9973C15.748 28.9487 17.8447 28.2799 19.5325 27.0426C19.9899 26.703 20.4301 26.3426 20.8355 25.9371C21.2202 25.5524 21.2479 24.8454 20.8355 24.4677C20.4197 24.0865 19.7785 24.0587 19.3661 24.4677C19.1478 24.6825 18.9225 24.8905 18.6868 25.0846C18.6279 25.1331 18.569 25.1781 18.5101 25.2266C18.4131 25.3029 18.7007 25.0811 18.6002 25.1573C18.5655 25.1816 18.5344 25.2059 18.4997 25.2336C18.3784 25.3237 18.2571 25.4069 18.1323 25.49C17.6437 25.8158 17.1238 26.0931 16.5832 26.3253C16.6664 26.2906 16.7496 26.2559 16.8327 26.2213C16.0634 26.5436 15.2559 26.7619 14.431 26.8763C14.5246 26.8624 14.6147 26.852 14.7083 26.8382C13.8696 26.9491 13.024 26.9491 12.1888 26.8382C12.2824 26.852 12.3725 26.8624 12.466 26.8763C11.6378 26.7619 10.8337 26.5436 10.0644 26.2213C10.1475 26.2559 10.2307 26.2906 10.3139 26.3253C9.89454 26.1485 9.48906 25.9406 9.09744 25.7049C8.8999 25.5836 8.70583 25.4588 8.51868 25.3237C8.44244 25.2682 8.12013 25.0152 8.40778 25.2474C8.31768 25.1747 8.2241 25.1019 8.134 25.0256C7.7701 24.7207 7.42701 24.3845 7.1151 24.0275C7.03886 23.9374 6.96261 23.8473 6.88637 23.7572C6.85518 23.7191 6.82399 23.6775 6.7928 23.6394C6.69229 23.5146 6.86211 23.726 6.86211 23.7295C6.84825 23.7018 6.82052 23.674 6.80319 23.6498C6.66457 23.4626 6.53288 23.272 6.40811 23.078C6.1274 22.6378 5.8848 22.1734 5.68033 21.6952C5.71499 21.7783 5.74964 21.8615 5.7843 21.9447C5.46199 21.1753 5.24366 20.3678 5.12929 19.543C5.14316 19.6366 5.15355 19.7267 5.16742 19.8203C5.05652 18.9816 5.05652 18.136 5.16742 17.3007C5.15355 17.3943 5.14316 17.4844 5.12929 17.578C5.24366 16.7497 5.46199 15.9457 5.7843 15.1763C5.74964 15.2595 5.71499 15.3427 5.68033 15.4258C5.85708 15.0065 6.06501 14.601 6.30068 14.2094C6.42197 14.0119 6.54674 13.8178 6.6819 13.6306C6.73735 13.5544 6.99034 13.2321 6.75814 13.5197C6.83092 13.4296 6.9037 13.3361 6.97994 13.246C7.28492 12.8821 7.62108 12.539 7.97804 12.2271C8.06815 12.1508 8.15826 12.0746 8.24836 11.9983C8.28648 11.9671 8.32807 11.936 8.36619 11.9048C8.49096 11.8043 8.27955 11.9741 8.27609 11.9741C8.30381 11.9602 8.33154 11.9325 8.3558 11.9152C8.54294 11.7765 8.73355 11.6448 8.92763 11.5201C9.36776 11.2394 9.83216 10.9968 10.3104 10.7923C10.2272 10.8269 10.1441 10.8616 10.0609 10.8963C10.8303 10.574 11.6378 10.3556 12.4626 10.2413C12.369 10.2551 12.2789 10.2655 12.1853 10.2794C13.024 10.1685 13.8696 10.1685 14.7048 10.2794C14.6113 10.2655 14.5212 10.2551 14.4276 10.2413C15.2559 10.3556 16.0599 10.574 16.8293 10.8963C16.7461 10.8616 16.6629 10.8269 16.5797 10.7923C16.9991 10.969 17.4046 11.177 17.7962 11.4126C17.9937 11.5339 18.1878 11.6587 18.3749 11.7939C18.4512 11.8493 18.7735 12.1023 18.4858 11.8701C18.5759 11.9429 18.6695 12.0157 18.7596 12.0919C19.1235 12.3969 19.4666 12.733 19.7785 13.09C19.8548 13.1801 19.931 13.2702 20.0073 13.3603C20.0384 13.3984 20.0696 13.44 20.1008 13.4782C20.2013 13.6029 20.0315 13.3915 20.0315 13.3881C20.0454 13.4158 20.0731 13.4435 20.0904 13.4678C20.2291 13.6549 20.3607 13.8455 20.4855 14.0396C20.7662 14.4797 21.0088 14.9441 21.2133 15.4224C21.1786 15.3392 21.144 15.256 21.1093 15.1729C21.4316 15.9422 21.65 16.7497 21.7643 17.5745C21.7505 17.481 21.7401 17.3909 21.7262 17.2973C21.8371 18.136 21.8371 18.9816 21.7262 19.8168C21.7401 19.7232 21.7505 19.6331 21.7643 19.5395C21.65 20.3678 21.4316 21.1719 21.1093 21.9412C21.144 21.8581 21.1786 21.7749 21.2133 21.6917C20.9846 22.2323 20.7038 22.7522 20.3781 23.2408C20.2984 23.3587 20.2187 23.473 20.1355 23.5874C20.1112 23.6221 20.087 23.6533 20.0592 23.6879C19.9761 23.7988 20.1182 23.6117 20.132 23.5978C20.08 23.6498 20.0384 23.7156 19.9899 23.7746C19.7924 24.0171 19.581 24.2493 19.3592 24.4711C18.9745 24.8558 18.9433 25.5594 19.3592 25.9406C19.7785 26.3183 20.4231 26.3495 20.8355 25.9371Z" fill="#303F9F"/>
<path d="M28.2205 2.30499C27.926 2.59957 27.6314 2.89415 27.3368 3.18873C26.6333 3.89225 25.9298 4.59577 25.2262 5.2993C24.3737 6.15184 23.5177 7.00785 22.6651 7.8604C21.9304 8.59511 21.1957 9.32982 20.461 10.0645C20.1006 10.425 19.7332 10.775 19.3832 11.1424C19.3797 11.1458 19.3728 11.1527 19.3693 11.1562C18.9846 11.5409 18.9569 12.2479 19.3693 12.6256C19.7852 13.0069 20.4298 13.038 20.8387 12.6256C21.1333 12.3311 21.4279 12.0365 21.7225 11.7419C22.426 11.0384 23.1295 10.3349 23.833 9.63133C24.6856 8.77879 25.5416 7.92278 26.3941 7.07023C27.1289 6.33552 27.8636 5.60081 28.5983 4.86609C28.9587 4.50567 29.3261 4.15564 29.6761 3.78828C29.6796 3.78481 29.6865 3.77788 29.69 3.77442C30.0746 3.38973 30.1024 2.68274 29.69 2.30499C29.2776 1.92377 28.6329 1.89258 28.2205 2.30499Z" fill="#303F9F"/>
<path d="M21.5356 4.07938C22.3708 4.07938 23.2026 4.07938 24.0378 4.07938C25.3686 4.07938 26.6994 4.07938 28.0302 4.07938C28.3387 4.07938 28.6471 4.07938 28.9521 4.07938C28.6055 3.73282 28.2589 3.38625 27.9124 3.03969C27.9124 3.87491 27.9124 4.70666 27.9124 5.54188C27.9124 6.87268 27.9124 8.20348 27.9124 9.53428C27.9124 9.84272 27.9124 10.1512 27.9124 10.4561C27.9124 11.0002 28.3906 11.5201 28.9521 11.4958C29.517 11.4716 29.9918 11.0384 29.9918 10.4561C29.9918 9.62092 29.9918 8.78917 29.9918 7.95396C29.9918 6.62315 29.9918 5.29235 29.9918 3.96155C29.9918 3.65311 29.9918 3.34466 29.9918 3.03969C29.9918 2.47826 29.517 2 28.9521 2C28.1169 2 27.2851 2 26.4499 2C25.1191 2 23.7883 2 22.4575 2C22.149 2 21.8406 2 21.5356 2C20.9915 2 20.4717 2.47826 20.4959 3.03969C20.5237 3.60112 20.9534 4.07938 21.5356 4.07938Z" fill="#303F9F"/>
</svg>
