<svg width="41" height="41" viewBox="0 0 41 41" fill="none" xmlns="http://www.w3.org/2000/svg">
<path d="M29.1667 25.6667H27.3233L26.67 25.0367C28.9567 22.3767 30.3333 18.9233 30.3333 15.1667C30.3333 6.79 23.5433 0 15.1667 0C6.79 0 0 6.79 0 15.1667C0 23.5433 6.79 30.3333 15.1667 30.3333C18.9233 30.3333 22.3767 28.9567 25.0367 26.67L25.6667 27.3233V29.1667L37.3333 40.81L40.81 37.3333L29.1667 25.6667ZM15.1667 25.6667C9.35667 25.6667 4.66667 20.9767 4.66667 15.1667C4.66667 9.35667 9.35667 4.66667 15.1667 4.66667C20.9767 4.66667 25.6667 9.35667 25.6667 15.1667C25.6667 20.9767 20.9767 25.6667 15.1667 25.6667Z" fill="white"/>
</svg>
