<svg width="47" height="48" viewBox="0 0 47 48" fill="none" xmlns="http://www.w3.org/2000/svg">
<path d="M41.3108 26.352C41.4068 25.584 41.4788 24.816 41.4788 24C41.4788 23.184 41.4068 22.416 41.3108 21.648L46.3748 17.688C46.8308 17.328 46.9508 16.68 46.6628 16.152L41.8628 7.848C41.6468 7.464 41.2388 7.248 40.8068 7.248C40.6628 7.248 40.5188 7.272 40.3988 7.32L34.4228 9.72C33.1748 8.76 31.8308 7.968 30.3668 7.368L29.4548 1.008C29.3828 0.432 28.8788 0 28.2788 0H18.6788C18.0788 0 17.5748 0.432 17.5028 1.008L16.5908 7.368C15.1268 7.968 13.7828 8.784 12.5348 9.72L6.55881 7.32C6.41481 7.272 6.27081 7.248 6.12681 7.248C5.71881 7.248 5.31081 7.464 5.09481 7.848L0.294814 16.152C-0.0171863 16.68 0.126814 17.328 0.582814 17.688L5.64681 21.648C5.55081 22.416 5.47881 23.208 5.47881 24C5.47881 24.792 5.55081 25.584 5.64681 26.352L0.582814 30.312C0.126814 30.672 0.00681373 31.32 0.294814 31.848L5.09481 40.152C5.31081 40.536 5.71881 40.752 6.15082 40.752C6.29482 40.752 6.43881 40.728 6.55881 40.68L12.5348 38.28C13.7828 39.24 15.1268 40.032 16.5908 40.632L17.5028 46.992C17.5748 47.568 18.0788 48 18.6788 48H28.2788C28.8788 48 29.3828 47.568 29.4548 46.992L30.3668 40.632C31.8308 40.032 33.1748 39.216 34.4228 38.28L40.3988 40.68C40.5428 40.728 40.6868 40.752 40.8308 40.752C41.2388 40.752 41.6468 40.536 41.8628 40.152L46.6628 31.848C46.9508 31.32 46.8308 30.672 46.3748 30.312L41.3108 26.352ZM36.5588 22.248C36.6548 22.992 36.6788 23.496 36.6788 24C36.6788 24.504 36.6308 25.032 36.5588 25.752L36.2228 28.464L38.3588 30.144L40.9508 32.16L39.2708 35.064L36.2228 33.84L33.7268 32.832L31.5668 34.464C30.5348 35.232 29.5508 35.808 28.5668 36.216L26.0228 37.248L25.6388 39.96L25.1588 43.2H21.7988L21.3428 39.96L20.9588 37.248L18.4148 36.216C17.3828 35.784 16.4228 35.232 15.4628 34.512L13.2788 32.832L10.7348 33.864L7.68681 35.088L6.00681 32.184L8.59881 30.168L10.7348 28.488L10.3988 25.776C10.3268 25.032 10.2788 24.48 10.2788 24C10.2788 23.52 10.3268 22.968 10.3988 22.248L10.7348 19.536L8.59881 17.856L6.00681 15.84L7.68681 12.936L10.7348 14.16L13.2308 15.168L15.3908 13.536C16.4228 12.768 17.4068 12.192 18.3908 11.784L20.9348 10.752L21.3188 8.04L21.7988 4.8H25.1348L25.5908 8.04L25.9748 10.752L28.5188 11.784C29.5508 12.216 30.5108 12.768 31.4708 13.488L33.6548 15.168L36.1988 14.136L39.2468 12.912L40.9268 15.816L38.3588 17.856L36.2228 19.536L36.5588 22.248ZM23.4788 14.4C18.1748 14.4 13.8788 18.696 13.8788 24C13.8788 29.304 18.1748 33.6 23.4788 33.6C28.7828 33.6 33.0788 29.304 33.0788 24C33.0788 18.696 28.7828 14.4 23.4788 14.4ZM23.4788 28.8C20.8388 28.8 18.6788 26.64 18.6788 24C18.6788 21.36 20.8388 19.2 23.4788 19.2C26.1188 19.2 28.2788 21.36 28.2788 24C28.2788 26.64 26.1188 28.8 23.4788 28.8Z" fill="#BDBDBD"/>
</svg>
